<svg
                  width="18"
                  height="17"
                  viewBox="0 0 18 17"
                  fill="none"
                  xmlns="http://www.w3.org/2000/svg"
                >
                  <path
                    d="M16.7365 5.89649L11.7775 5.17579L9.56073 0.681648C9.50019 0.558601 9.40058 0.458992 9.27753 0.398445C8.96894 0.246101 8.59394 0.373054 8.43964 0.681648L6.22284 5.17579L1.26386 5.89649C1.12714 5.91602 1.00214 5.98048 0.906439 6.07813C0.790739 6.19705 0.726984 6.35704 0.729181 6.52294C0.731378 6.68884 0.799349 6.84708 0.918158 6.9629L4.50605 10.4609L3.65839 15.4004C3.63851 15.5153 3.65123 15.6335 3.6951 15.7415C3.73896 15.8496 3.81222 15.9432 3.90657 16.0117C4.00092 16.0802 4.11259 16.1209 4.2289 16.1292C4.34521 16.1375 4.46152 16.113 4.56464 16.0586L9.00019 13.7266L13.4357 16.0586C13.5568 16.1231 13.6975 16.1445 13.8322 16.1211C14.1721 16.0625 14.4006 15.7402 14.342 15.4004L13.4943 10.4609L17.0822 6.9629C17.1799 6.86719 17.2443 6.74219 17.2639 6.60548C17.3166 6.26368 17.0783 5.94727 16.7365 5.89649Z"
                    fill="white"
                  />
                </svg>