            <svg
              width="20"
              height="20"
              viewBox="0 0 20 20"
              fill="none"
              xmlns="http://www.w3.org/2000/svg"
            >
              <path
                d="M19.3521 6.72529L13.3565 5.85394L10.6763 0.420339C10.6031 0.271571 10.4827 0.151139 10.3339 0.0779352C9.9608 -0.106255 9.50741 0.0472369 9.32086 0.420339L6.64066 5.85394L0.645051 6.72529C0.479753 6.74891 0.328623 6.82683 0.212914 6.9449C0.0730283 7.08868 -0.00405509 7.28211 -0.00139838 7.4827C0.00125833 7.68328 0.0834378 7.8746 0.227082 8.01462L4.56499 12.2439L3.54014 18.2159C3.5161 18.3548 3.53148 18.4977 3.58451 18.6283C3.63755 18.759 3.72612 18.8721 3.8402 18.955C3.95427 19.0378 4.08927 19.087 4.2299 19.0971C4.37053 19.1071 4.51115 19.0775 4.63583 19.0117L9.99858 16.1922L15.3613 19.0117C15.5077 19.0896 15.6778 19.1156 15.8407 19.0873C16.2516 19.0164 16.5279 18.6268 16.457 18.2159L15.4322 12.2439L19.7701 8.01462C19.8882 7.89891 19.9661 7.74778 19.9897 7.58248C20.0534 7.16924 19.7654 6.78669 19.3521 6.72529ZM13.6068 11.6488L14.4593 16.6149L9.99858 14.2723L5.53789 16.6172L6.39035 11.6512L2.78212 8.13269L7.76941 7.40774L9.99858 2.89037L12.2278 7.40774L17.215 8.13269L13.6068 11.6488Z"
                fill="white"
                class="fill"
              />
            </svg>