 <svg
              width="20"
              height="20"
              viewBox="0 0 20 20"
              fill="none"
              xmlns="http://www.w3.org/2000/svg"
            >
              <path
                d="M0 0H1.25V20H0V0ZM1.25 18.75H20V20H1.25V18.75Z"
                fill="white"
                class="fill"
              />
              <path
                fill-rule="evenodd"
                clip-rule="evenodd"
                d="M17.9876 5.38989L12.5514 12.1874L8.75012 8.38364L4.19262 12.9424L3.30762 12.0574L8.75012 6.61614L12.4489 10.3124L17.0114 4.60864L17.9876 5.38864V5.38989Z"
                fill="white"
                class="fill"
              />
              <path
                fill-rule="evenodd"
                clip-rule="evenodd"
                d="M12.5 4.375C12.5 4.20924 12.5658 4.05027 12.6831 3.93306C12.8003 3.81585 12.9592 3.75 13.125 3.75H18.125C18.2908 3.75 18.4497 3.81585 18.5669 3.93306C18.6842 4.05027 18.75 4.20924 18.75 4.375V9.375C18.75 9.54076 18.6842 9.69973 18.5669 9.81694C18.4497 9.93415 18.2908 10 18.125 10C17.9592 10 17.8003 9.93415 17.6831 9.81694C17.5658 9.69973 17.5 9.54076 17.5 9.375V5H13.125C12.9592 5 12.8003 4.93415 12.6831 4.81694C12.5658 4.69973 12.5 4.54076 12.5 4.375Z"
                fill="white"
                class="fill"
              />
            </svg>