<svg width="24" height="24" viewBox="0 0 24 24" fill="none" xmlns="http://www.w3.org/2000/svg">
<path d="M0 0H1.5V24H0V0ZM1.5 22.5H24V24H1.5V22.5Z" fill="#DA3667"/>
<path fill-rule="evenodd" clip-rule="evenodd" d="M21.585 13.5615L15.0615 5.4075L10.5 9.969L5.03099 4.5L3.96899 5.5605L10.5 12.0915L14.9385 7.653L20.4135 14.499L21.585 13.5615Z" fill="#DA3667"/>
<path fill-rule="evenodd" clip-rule="evenodd" d="M15 14.7813C15 14.9802 15.079 15.1709 15.2197 15.3116C15.3603 15.4522 15.5511 15.5313 15.75 15.5313H21.75C21.9489 15.5313 22.1397 15.4522 22.2803 15.3116C22.421 15.1709 22.5 14.9802 22.5 14.7813V8.78125C22.5 8.58234 22.421 8.39157 22.2803 8.25092C22.1397 8.11027 21.9489 8.03125 21.75 8.03125C21.5511 8.03125 21.3603 8.11027 21.2197 8.25092C21.079 8.39157 21 8.58234 21 8.78125V14.0313H15.75C15.5511 14.0313 15.3603 14.1103 15.2197 14.2509C15.079 14.3916 15 14.5823 15 14.7813Z" fill="#DA3667"/>
</svg>
