<svg
              
              width="18"
              height="18"
              viewBox="0 1 18 16"
              fill="none"
              xmlns="http://www.w3.org/2000/svg"
            >
              <path
                d="M8.9999 1.8291C8.0919 0.994182 6.90341 0.530801 5.6699 0.530762C5.01702 0.531441 4.37071 0.661228 3.76818 0.912652C3.16565 1.16408 2.61879 1.53217 2.15907 1.99576C0.198236 3.96493 0.199069 7.04493 2.16074 9.00576L8.27074 15.1158C8.4124 15.3649 8.68574 15.5258 8.9999 15.5258C9.1289 15.5245 9.25581 15.493 9.37043 15.4338C9.48505 15.3746 9.5842 15.2894 9.6599 15.1849L15.8391 9.00576C17.8007 7.0441 17.8007 3.96493 15.8374 1.99243C15.3779 1.52969 14.8315 1.16234 14.2295 0.911498C13.6276 0.660653 12.982 0.531261 12.3299 0.530762C11.0964 0.530963 9.90799 0.994322 8.9999 1.8291ZM14.6591 3.17076C15.9616 4.47993 15.9624 6.52493 14.6607 7.82743L8.9999 13.4883L3.33907 7.82743C2.0374 6.52493 2.03824 4.47993 3.3374 3.1741C3.97074 2.5441 4.79907 2.19743 5.6699 2.19743C6.54074 2.19743 7.36574 2.5441 7.99407 3.17243L8.41074 3.5891C8.48806 3.66655 8.5799 3.728 8.68099 3.76992C8.78209 3.81185 8.89046 3.83343 8.9999 3.83343C9.10935 3.83343 9.21772 3.81185 9.31881 3.76992C9.41991 3.728 9.51175 3.66655 9.58907 3.5891L10.0057 3.17243C11.2657 1.91493 13.4007 1.91826 14.6591 3.17076Z"
                fill="white"
              />
            </svg>