<svg width="19" height="20" viewBox="0 0 19 20" fill="none" xmlns="http://www.w3.org/2000/svg">
<path fill-rule="evenodd" clip-rule="evenodd" d="M18.4537 0.0936031C18.5443 0.149596 18.619 0.227785 18.6709 0.320757C18.7227 0.413729 18.7499 0.518403 18.75 0.624853V19.3749C18.75 19.5406 18.6842 19.6996 18.5669 19.8168C18.4497 19.934 18.2908 19.9999 18.125 19.9999H14.375C14.2092 19.9999 14.0503 19.934 13.9331 19.8168C13.8158 19.6996 13.75 19.5406 13.75 19.3749V17.4999H12.5V19.3749C12.5 19.5406 12.4342 19.6996 12.3169 19.8168C12.1997 19.934 12.0408 19.9999 11.875 19.9999H0.625C0.45924 19.9999 0.300269 19.934 0.183058 19.8168C0.065848 19.6996 0 19.5406 0 19.3749V12.4999C9.95584e-05 12.3687 0.0414351 12.241 0.118156 12.1346C0.194877 12.0283 0.303098 11.9488 0.4275 11.9074L7.5 9.54985V5.62485C7.5 5.50888 7.53228 5.3952 7.5932 5.29652C7.65413 5.19784 7.74132 5.11806 7.845 5.0661L17.845 0.066103C17.9404 0.0183603 18.0464 -0.00417676 18.153 0.00063685C18.2595 0.00545046 18.3631 0.0374546 18.4537 0.0936031ZM7.5 10.8674L1.25 12.9499V18.7499H7.5V10.8674ZM8.75 18.7499H11.25V16.8749C11.25 16.7091 11.3158 16.5501 11.4331 16.4329C11.5503 16.3157 11.7092 16.2499 11.875 16.2499H14.375C14.5408 16.2499 14.6997 16.3157 14.8169 16.4329C14.9342 16.5501 15 16.7091 15 16.8749V18.7499H17.5V1.6361L8.75 6.0111V18.7499Z" fill="white"/>
</svg>
