<svg width="20" height="20" viewBox="0 0 20 20" fill="none" xmlns="http://www.w3.org/2000/svg">
<path d="M9.6 0C4.29857 0 0 4.29857 0 9.6C0 14.9014 4.29857 19.2 9.6 19.2C14.9014 19.2 19.2 14.9014 19.2 9.6C19.2 4.29857 14.9014 0 9.6 0ZM13.1443 13.2471L11.73 13.2407L9.6 10.7014L7.47214 13.2386L6.05571 13.245C5.96143 13.245 5.88429 13.17 5.88429 13.0736C5.88429 13.0329 5.89929 12.9943 5.925 12.9621L8.71286 9.64071L5.925 6.32143C5.89911 6.29002 5.88474 6.2507 5.88429 6.21C5.88429 6.11571 5.96143 6.03857 6.05571 6.03857L7.47214 6.045L9.6 8.58429L11.7279 6.04714L13.1421 6.04071C13.2364 6.04071 13.3136 6.11571 13.3136 6.21214C13.3136 6.25286 13.2986 6.29143 13.2729 6.32357L10.4893 9.64286L13.275 12.9643C13.3007 12.9964 13.3157 13.035 13.3157 13.0757C13.3157 13.17 13.2386 13.2471 13.1443 13.2471Z" fill="#DA3667"/>
</svg>
